<?xml version="1.0" encoding="iso-8859-1"?>
<!-- Generator: Adobe Illustrator 19.0.0, SVG Export Plug-In . SVG Version: 6.00 Build 0)  -->
<svg version="1.1" id="Layer_1" xmlns="http://www.w3.org/2000/svg" xmlns:xlink="http://www.w3.org/1999/xlink" x="0px" y="0px"
	 viewBox="0 0 512 512" style="enable-background:new 0 0 512 512;" xml:space="preserve">
<circle style="fill:#366695;" cx="256" cy="256" r="256"/>
<path style="fill:#273B7A;" d="M195.022,412.115l97.306,97.306c114.216-16.227,204.15-107.823,217.846-222.834L362.337,138.75
	L195.022,412.115z"/>
<path style="fill:#E2AC71;" d="M207.674,416.952h96.651c9.576,0,17.655-7.132,18.842-16.634l30.465-243.722H158.367l30.465,243.722
	C190.019,409.821,198.097,416.952,207.674,416.952z"/>
<path style="fill:#C48C55;" d="M256.576,156.596v260.356h47.75c9.576,0,17.655-7.132,18.842-16.634l30.465-243.722L256.576,156.596
	L256.576,156.596z"/>
<polygon style="fill:#499642;" points="343.978,233.848 168.022,233.848 181.336,340.358 330.664,340.358 "/>
<polygon style="fill:#3E8436;" points="343.978,233.848 256.576,233.848 256.576,340.358 330.664,340.358 "/>
<path style="fill:#BFBFBF;" d="M175.547,152.159h160.906c7.854,0,14.222-6.368,14.222-14.222v-4.099
	c0-7.854-6.368-14.222-14.222-14.222H175.547c-7.854,0-14.222,6.368-14.222,14.222v4.099
	C161.325,145.791,167.693,152.159,175.547,152.159z"/>
<path style="fill:#A2A2A3;" d="M336.453,119.613h-79.877v32.544h79.877c7.854,0,14.222-6.368,14.222-14.222v-4.099
	C350.675,125.981,344.307,119.613,336.453,119.613z"/>
<path style="fill:#FFFFFF;" d="M160.754,165.966h190.492c7.854,0,14.222-6.368,14.222-14.222v-4.099
	c0-7.854-6.368-14.222-14.222-14.222H160.754c-7.854,0-14.222,6.368-14.222,14.222v4.099
	C146.532,159.597,152.9,165.966,160.754,165.966z"/>
<path style="fill:#DEDFE0;" d="M351.246,133.42h-94.67v32.544h94.67c7.854,0,14.222-6.368,14.222-14.222v-4.099
	C365.468,139.788,359.1,133.42,351.246,133.42z"/>
<circle style="fill:#FFEDB5;" cx="256" cy="286.772" r="32.544"/>
<path style="fill:#E8D295;" d="M288.544,286.773c0-17.78-14.264-32.206-31.97-32.516v65.031
	C274.28,318.979,288.544,304.554,288.544,286.773z"/>
<g>
</g>
<g>
</g>
<g>
</g>
<g>
</g>
<g>
</g>
<g>
</g>
<g>
</g>
<g>
</g>
<g>
</g>
<g>
</g>
<g>
</g>
<g>
</g>
<g>
</g>
<g>
</g>
<g>
</g>
</svg>
